<svg id="Capa_1" enable-background="new 0 0 512 512" height="512" viewBox="0 0 512 512" width="512" xmlns="http://www.w3.org/2000/svg"><g><path d="m383.51 81.324h60.609c4.959 0 8.979 4.02 8.979 8.979v253.363h-78.568v-253.363c.001-4.959 4.021-8.979 8.98-8.979z" fill="#037e73"/><path d="m79.64 465.096c-11.353 0-20.557-9.204-20.557-20.557v-34.985h41.114v34.985c0 11.353-9.203 20.557-20.557 20.557z" fill="#7c4b37"/><path d="m433.718 465.096c-11.353 0-20.557-9.204-20.557-20.557v-34.985h41.114v34.985c0 11.353-9.203 20.557-20.557 20.557z" fill="#7c4b37"/><path d="m295.963 343.667h-78.567v-287.784c0-4.959 4.02-8.979 8.979-8.979h60.609c4.959 0 8.979 4.02 8.979 8.979z" fill="#e53950"/><path d="m217.396 343.667h-78.568v-287.784c0-4.959 4.02-8.979 8.979-8.979h60.609c4.959 0 8.979 4.02 8.979 8.979v287.784z" fill="#0078c8"/><path d="m138.828 104.651h78.568v38.402h-78.568z" fill="#7bacdf"/><path d="m138.828 343.667h-78.567v-287.784c0-4.959 4.02-8.979 8.979-8.979h60.609c4.959 0 8.979 4.02 8.979 8.979z" fill="#fec165"/><path d="m304.942 81.324h60.609c4.959 0 8.979 4.02 8.979 8.979v253.363h-78.568v-253.363c.001-4.959 4.021-8.979 8.98-8.979z" fill="#0078c8"/><path d="m502.728 417.037h-493.456c-5.121 0-9.272-4.151-9.272-9.272v-54.827c0-5.121 4.151-9.272 9.272-9.272h493.457c5.121 0 9.272 4.151 9.272 9.272v54.827c-.001 5.121-4.152 9.272-9.273 9.272z" fill="#aa6a51"/><path d="m502.728 343.667h-40.883c5.121 0 9.272 4.151 9.272 9.272v54.827c0 5.121-4.151 9.272-9.272 9.272h40.883c5.121 0 9.272-4.151 9.272-9.272v-54.827c0-5.121-4.151-9.272-9.272-9.272z" fill="#935b44"/><path d="m129.849 46.904h-35.042c4.959 0 8.979 4.02 8.979 8.979v287.783h35.043v-287.783c-.001-4.959-4.021-8.979-8.98-8.979z" fill="#fdb441"/><path d="m365.552 81.324h-35.042c4.959 0 8.979 4.02 8.979 8.979v253.363h35.042v-253.363c0-4.959-4.02-8.979-8.979-8.979z" fill="#0268b4"/><path d="m444.119 81.324h-35.042c4.959 0 8.979 4.02 8.979 8.979v253.363h35.042v-253.363c0-4.959-4.02-8.979-8.979-8.979z" fill="#006e66"/><path d="m286.984 46.904h-35.042c4.959 0 8.979 4.02 8.979 8.979v287.783h35.043v-287.783c-.001-4.959-4.021-8.979-8.98-8.979z" fill="#ca2e43"/><path d="m217.396 104.651h78.568v38.402h-78.568z" fill="#fee8c7"/><path d="m260.921 104.651h35.043v38.402h-35.043z" fill="#fedba6"/><path d="m295.963 258.67h78.568v33.948h-78.568z" fill="#7bacdf" transform="matrix(-1 0 0 -1 670.494 551.288)"/><path d="m339.488 258.67h35.042v33.948h-35.042z" fill="#5f99d7"/><path d="m374.531 258.67h78.568v33.948h-78.568z" fill="#0ab69f" transform="matrix(-1 0 0 -1 827.629 551.288)"/><path d="m418.056 258.67h35.042v33.948h-35.042z" fill="#01998d"/><path d="m208.417 46.904h-35.042c4.959 0 8.979 4.02 8.979 8.979v287.783h35.042v-287.783c0-4.959-4.02-8.979-8.979-8.979z" fill="#0268b4"/><path d="m182.353 104.651h35.042v38.402h-35.042z" fill="#5f99d7"/><path d="m60.261 104.651h78.568v38.402h-78.568z" fill="#fee8c7"/><path d="m103.786 104.651h35.043v38.402h-35.043z" fill="#fedba6"/></g></svg>