<svg id="svg" version="1.1" xmlns="http://www.w3.org/2000/svg" xmlns:xlink="http://www.w3.org/1999/xlink" width="400" height="400" viewBox="0, 0, 400,400"><g id="svgg"><path id="path0" d="M131.333 26.558 C 127.529 28.603,118.919 33.224,112.199 36.828 L 99.980 43.381 100.094 189.649 C 100.157 270.096,100.255 335.964,100.312 336.023 C 100.370 336.081,104.167 337.071,108.750 338.222 C 113.333 339.373,121.846 341.514,127.667 342.980 C 137.650 345.493,155.777 350.055,176.681 355.313 C 195.628 360.080,203.020 361.238,214.500 361.240 C 243.143 361.245,258.243 348.339,261.775 320.833 C 262.137 318.015,262.324 286.750,262.007 282.000 C 260.189 254.714,246.878 233.512,224.209 221.788 C 223.338 221.338,223.168 221.179,223.167 220.817 L 223.167 220.383 225.208 220.268 C 247.917 218.987,260.191 205.359,262.001 179.417 C 262.218 176.310,262.212 146.273,261.994 143.167 C 259.324 105.115,233.767 78.441,187.500 65.416 C 184.717 64.633,182.027 63.944,157.583 57.750 C 154.467 56.960,149.442 55.685,146.417 54.917 C 143.392 54.148,138.517 52.910,135.583 52.166 C 132.650 51.422,126.987 49.983,123.000 48.968 C 119.013 47.954,115.525 47.073,115.250 47.012 C 114.663 46.880,114.204 47.158,121.333 43.332 C 123.763 42.029,128.892 39.276,132.731 37.215 L 139.712 33.467 145.065 34.820 C 153.097 36.851,173.507 42.024,183.583 44.583 C 186.242 45.258,191.717 46.646,195.750 47.667 C 199.783 48.687,205.258 50.075,207.917 50.751 C 210.575 51.426,215.450 52.663,218.750 53.499 C 222.050 54.335,227.412 55.695,230.667 56.520 C 233.921 57.345,239.396 58.734,242.833 59.605 C 250.113 61.449,257.937 63.434,265.333 65.313 C 272.126 67.038,283.270 69.859,286.250 70.608 C 287.533 70.930,288.865 71.266,289.208 71.354 L 289.833 71.513 289.824 213.965 L 289.814 356.417 286.532 358.848 C 278.261 364.976,263.225 376.229,263.000 376.459 C 262.862 376.600,263.162 376.487,263.667 376.208 C 265.217 375.351,269.282 373.116,272.042 371.605 C 273.485 370.814,275.848 369.520,277.292 368.729 C 278.735 367.938,280.217 367.125,280.583 366.922 C 280.950 366.719,282.862 365.669,284.833 364.588 C 286.804 363.507,288.979 362.308,289.667 361.924 C 290.354 361.539,292.960 360.106,295.458 358.739 L 300.000 356.253 300.000 209.993 L 300.000 63.733 296.208 62.780 C 294.123 62.255,290.054 61.225,287.167 60.491 C 284.279 59.756,278.204 58.215,273.667 57.066 C 269.129 55.918,263.242 54.425,260.583 53.749 C 257.925 53.073,252.900 51.799,249.417 50.917 C 241.411 48.891,232.065 46.522,225.417 44.833 C 219.412 43.308,211.171 41.219,201.750 38.834 C 198.083 37.906,192.758 36.556,189.917 35.834 C 187.075 35.113,181.450 33.687,177.417 32.667 C 173.383 31.646,167.908 30.259,165.250 29.583 C 162.592 28.908,157.904 27.717,154.833 26.938 C 151.762 26.158,146.870 24.916,143.961 24.177 C 141.051 23.438,138.576 22.835,138.461 22.837 C 138.345 22.839,135.137 24.514,131.333 26.558 M158.539 97.239 C 161.588 98.012,167.233 99.442,171.083 100.416 C 187.581 104.589,188.906 104.999,193.537 107.359 C 203.986 112.685,208.604 120.095,209.672 133.250 C 209.979 137.025,209.796 166.264,209.449 169.083 C 207.519 184.732,200.779 189.811,184.583 187.821 C 181.639 187.460,177.917 186.613,165.833 183.555 C 159.096 181.850,153.358 180.406,153.083 180.346 L 152.583 180.236 152.541 138.035 C 152.504 100.806,152.529 95.833,152.747 95.833 C 152.883 95.833,155.489 96.466,158.539 97.239 M167.333 229.416 C 177.663 232.020,179.127 232.417,182.167 233.439 C 200.522 239.608,207.970 248.791,209.588 267.250 C 209.984 271.769,209.868 301.490,209.443 304.333 C 207.889 314.731,203.129 319.167,193.526 319.167 C 188.817 319.167,187.839 318.972,170.333 314.557 C 163.229 312.765,156.356 311.036,155.060 310.716 L 152.703 310.134 152.633 268.025 C 152.594 244.866,152.582 225.873,152.607 225.819 C 152.652 225.722,153.688 225.975,167.333 229.416 " stroke="none" fill="#047cd4" fill-rule="evenodd"></path><path id="path1" d="M73.083 0.173 C 69.826 0.471,66.068 1.028,64.083 1.509 C 63.717 1.598,62.929 1.777,62.333 1.908 C 59.750 2.475,56.700 3.274,56.328 3.482 C 56.187 3.560,55.817 3.680,55.506 3.749 C 54.973 3.866,51.811 4.996,51.083 5.330 C 50.900 5.414,50.225 5.684,49.583 5.930 C 45.240 7.597,36.480 12.442,33.417 14.871 C 33.325 14.944,32.837 15.318,32.333 15.702 C 31.253 16.526,28.165 18.993,27.899 19.243 C 27.798 19.338,27.085 19.977,26.316 20.662 C 24.530 22.250,22.250 24.530,20.662 26.316 C 19.977 27.085,19.338 27.798,19.243 27.899 C 18.993 28.165,16.526 31.253,15.702 32.333 C 15.318 32.837,14.944 33.325,14.871 33.417 C 12.442 36.480,7.597 45.240,5.930 49.583 C 5.684 50.225,5.414 50.900,5.330 51.083 C 4.996 51.811,3.866 54.973,3.749 55.506 C 3.680 55.817,3.560 56.187,3.482 56.328 C 3.273 56.702,2.570 59.386,1.821 62.667 C 1.294 64.976,1.020 66.470,0.751 68.500 C 0.611 69.554,0.405 70.867,0.292 71.417 C 0.026 72.714,-0.104 323.462,0.160 326.500 C 0.494 330.350,0.908 333.187,1.606 336.417 C 2.156 338.958,3.213 343.039,3.506 343.750 C 3.582 343.933,3.729 344.383,3.833 344.750 C 3.938 345.117,4.086 345.567,4.162 345.750 C 4.238 345.933,4.470 346.571,4.676 347.167 C 4.882 347.762,5.180 348.550,5.337 348.917 C 5.495 349.283,5.828 350.103,6.079 350.738 C 6.330 351.373,6.596 352.011,6.670 352.155 C 6.745 352.299,7.383 353.617,8.088 355.083 C 9.274 357.549,11.410 361.473,11.671 361.667 C 11.733 361.712,11.880 361.938,11.999 362.167 C 12.372 362.888,14.924 366.669,15.542 367.417 C 15.618 367.508,16.120 368.165,16.658 368.875 C 17.707 370.261,18.771 371.574,19.580 372.480 C 23.575 376.954,27.524 380.658,31.250 383.426 C 31.983 383.971,32.658 384.476,32.750 384.549 C 33.409 385.070,35.787 386.721,36.750 387.326 C 37.392 387.729,38.292 388.296,38.750 388.586 C 39.208 388.877,39.996 389.332,40.500 389.599 C 41.004 389.865,41.454 390.126,41.500 390.178 C 41.592 390.282,47.072 392.985,48.000 393.384 C 48.321 393.522,49.071 393.833,49.667 394.075 C 50.262 394.317,50.900 394.585,51.083 394.670 C 51.267 394.755,51.754 394.939,52.167 395.080 C 52.579 395.220,53.892 395.670,55.083 396.078 C 60.567 397.959,67.094 399.262,73.917 399.839 C 77.040 400.103,326.743 399.974,328.167 399.707 C 328.762 399.596,330.150 399.391,331.250 399.251 C 334.501 398.839,337.945 398.109,342.250 396.918 C 343.503 396.572,346.585 395.547,347.250 395.256 C 347.525 395.136,347.938 394.987,348.167 394.925 C 348.396 394.863,348.733 394.745,348.917 394.664 C 349.100 394.582,349.738 394.317,350.333 394.075 C 350.929 393.833,351.679 393.520,352.000 393.379 C 352.717 393.065,358.154 390.377,358.500 390.166 C 359.482 389.566,361.047 388.667,361.107 388.667 C 361.147 388.667,361.383 388.527,361.632 388.357 C 361.880 388.187,362.608 387.719,363.250 387.317 C 363.892 386.915,364.492 386.525,364.583 386.452 C 364.675 386.378,365.275 385.947,365.917 385.495 C 367.893 384.100,369.930 382.566,370.583 381.981 C 370.767 381.817,371.441 381.248,372.083 380.716 C 373.592 379.466,379.466 373.592,380.716 372.083 C 381.248 371.441,381.817 370.767,381.981 370.583 C 382.566 369.930,384.100 367.893,385.495 365.917 C 385.947 365.275,386.378 364.675,386.452 364.583 C 386.525 364.492,386.915 363.892,387.317 363.250 C 387.719 362.608,388.187 361.880,388.357 361.632 C 388.527 361.383,388.667 361.147,388.667 361.107 C 388.667 361.047,389.566 359.482,390.166 358.500 C 390.377 358.154,393.065 352.717,393.379 352.000 C 393.520 351.679,393.833 350.929,394.075 350.333 C 394.317 349.738,394.582 349.100,394.664 348.917 C 394.745 348.733,394.863 348.396,394.925 348.167 C 394.987 347.938,395.136 347.525,395.256 347.250 C 396.030 345.482,397.490 340.469,398.194 337.167 C 398.837 334.148,398.999 333.240,399.251 331.250 C 399.391 330.150,399.596 328.762,399.707 328.167 C 399.974 326.743,400.103 77.040,399.839 73.917 C 399.262 67.094,397.959 60.567,396.078 55.083 C 395.670 53.892,395.220 52.579,395.080 52.167 C 394.939 51.754,394.755 51.267,394.670 51.083 C 394.585 50.900,394.317 50.262,394.075 49.667 C 393.833 49.071,393.522 48.321,393.384 48.000 C 392.985 47.072,390.282 41.592,390.178 41.500 C 390.126 41.454,389.865 41.004,389.599 40.500 C 389.332 39.996,388.877 39.208,388.586 38.750 C 388.296 38.292,387.729 37.392,387.326 36.750 C 386.721 35.787,385.070 33.409,384.549 32.750 C 384.476 32.658,383.971 31.983,383.426 31.250 C 380.658 27.524,376.954 23.575,372.480 19.580 C 371.574 18.771,370.261 17.707,368.875 16.658 C 368.165 16.120,367.508 15.618,367.417 15.542 C 366.669 14.924,362.888 12.372,362.167 11.999 C 361.938 11.880,361.712 11.733,361.667 11.671 C 361.473 11.410,357.549 9.274,355.083 8.088 C 353.617 7.383,352.299 6.745,352.155 6.670 C 352.011 6.596,351.373 6.330,350.738 6.079 C 350.103 5.828,349.283 5.495,348.917 5.337 C 348.550 5.180,347.762 4.881,347.167 4.673 C 346.571 4.465,345.858 4.199,345.583 4.082 C 345.308 3.965,344.823 3.814,344.505 3.746 C 344.188 3.679,343.813 3.566,343.672 3.494 C 343.202 3.254,339.059 2.177,336.417 1.608 C 333.235 0.922,330.410 0.503,326.667 0.161 C 324.759 -0.013,74.995 -0.001,73.083 0.173 M139.428 22.907 C 139.880 23.039,143.250 23.906,146.917 24.835 C 150.583 25.763,155.946 27.122,158.833 27.855 C 161.721 28.588,167.158 29.965,170.917 30.916 C 179.976 33.208,189.113 35.524,195.250 37.083 C 198.000 37.782,203.063 39.067,206.500 39.938 C 209.938 40.809,215.262 42.160,218.333 42.938 C 221.404 43.717,226.542 45.019,229.750 45.832 C 236.787 47.614,246.291 50.024,253.750 51.917 C 256.775 52.684,262.250 54.072,265.917 55.001 C 273.360 56.886,280.790 58.769,289.250 60.915 C 292.367 61.705,295.667 62.542,296.583 62.774 C 297.500 63.006,298.644 63.307,299.125 63.443 L 300.000 63.690 299.958 210.032 L 299.917 356.374 298.833 356.987 C 298.237 357.325,297.188 357.907,296.500 358.280 C 295.338 358.911,290.857 361.373,287.167 363.407 C 282.455 366.006,275.541 369.799,274.083 370.586 C 273.442 370.932,272.842 371.268,272.750 371.333 C 272.658 371.398,271.908 371.811,271.083 372.251 C 269.811 372.930,267.774 374.050,262.708 376.852 C 262.227 377.118,261.833 377.297,261.833 377.249 C 261.833 377.201,265.415 374.487,269.792 371.218 C 274.169 367.949,280.468 363.244,283.791 360.762 L 289.832 356.250 289.791 213.925 L 289.750 71.600 285.250 70.459 C 282.775 69.831,277.487 68.491,273.500 67.480 C 263.749 65.008,257.090 63.320,250.000 61.522 C 246.746 60.697,241.271 59.309,237.833 58.438 C 234.396 57.567,229.183 56.245,226.250 55.501 C 223.317 54.756,218.292 53.481,215.083 52.666 C 211.875 51.852,206.438 50.474,203.000 49.604 C 191.548 46.705,184.301 44.868,178.917 43.499 C 175.983 42.753,170.958 41.478,167.750 40.666 C 160.644 38.867,150.319 36.250,144.241 34.707 L 139.731 33.563 133.491 36.912 C 130.058 38.754,126.612 40.605,125.833 41.025 C 125.054 41.445,123.742 42.151,122.917 42.595 C 122.092 43.039,120.892 43.686,120.250 44.032 C 119.608 44.379,118.204 45.130,117.129 45.702 C 116.055 46.274,115.230 46.791,115.296 46.851 C 115.362 46.910,117.217 47.414,119.417 47.970 C 121.617 48.526,125.667 49.552,128.417 50.250 C 131.167 50.948,136.229 52.232,139.667 53.104 C 145.953 54.698,152.970 56.478,161.917 58.750 C 164.575 59.425,169.750 60.737,173.417 61.666 C 184.897 64.575,187.882 65.367,191.083 66.356 C 236.112 80.270,259.691 106.195,262.178 144.523 C 262.523 149.843,262.283 178.823,261.864 182.417 C 259.817 199.974,253.026 211.404,241.625 216.481 C 241.190 216.675,240.515 216.975,240.125 217.148 C 236.460 218.774,231.684 219.823,225.542 220.353 C 222.781 220.591,222.548 220.782,224.042 221.584 C 247.825 234.355,260.414 254.668,262.178 283.116 C 262.481 288.001,262.294 317.143,261.940 320.250 C 258.025 354.607,234.435 367.465,191.167 358.823 C 186.424 357.876,186.526 357.900,169.167 353.525 C 161.879 351.689,150.854 348.912,144.667 347.355 C 138.479 345.797,127.417 343.012,120.083 341.166 C 112.750 339.320,105.299 337.445,103.526 337.001 C 101.754 336.556,100.277 336.166,100.246 336.135 C 100.022 335.911,99.928 43.402,100.151 43.250 C 100.286 43.158,105.951 40.098,112.740 36.449 C 119.529 32.801,125.702 29.482,126.458 29.074 C 127.215 28.667,128.452 28.000,129.208 27.593 C 129.965 27.185,132.308 25.917,134.417 24.774 C 138.723 22.439,138.329 22.586,139.428 22.907 M152.667 138.016 C 152.667 161.199,152.702 180.167,152.745 180.167 C 152.789 180.167,155.358 180.810,158.454 181.596 C 183.293 187.901,184.129 188.069,190.500 188.060 C 202.364 188.043,207.381 183.151,209.277 169.750 C 209.746 166.432,209.746 132.724,209.277 129.917 C 206.955 116.028,200.404 108.955,185.500 104.246 C 184.813 104.029,181.438 103.139,178.000 102.270 C 174.563 101.401,168.776 99.935,165.141 99.014 C 157.162 96.992,153.349 96.028,152.958 95.934 C 152.681 95.868,152.667 97.956,152.667 138.016 M152.667 267.905 C 152.667 307.828,152.682 309.982,152.958 310.068 C 153.286 310.170,162.798 312.568,176.167 315.919 C 188.117 318.915,190.834 319.348,195.477 318.995 C 203.563 318.381,207.447 314.496,209.217 305.252 C 209.627 303.113,209.871 271.163,209.508 267.167 C 207.744 247.726,199.972 238.954,178.739 232.439 C 178.274 232.296,173.549 231.084,168.239 229.744 C 162.928 228.404,157.271 226.976,155.667 226.571 C 154.063 226.166,152.731 225.835,152.708 225.834 C 152.685 225.834,152.667 244.766,152.667 267.905 " stroke="none" fill="#ececf4" fill-rule="evenodd"></path><path id="path2" d="M99.909 49.333 C 99.909 52.679,99.931 54.048,99.958 52.375 C 99.985 50.702,99.985 47.965,99.958 46.292 C 99.931 44.619,99.909 45.987,99.909 49.333 M152.581 115.000 C 152.581 125.587,152.601 129.919,152.625 124.625 C 152.649 119.331,152.649 110.669,152.625 105.375 C 152.601 100.081,152.581 104.412,152.581 115.000 M201.667 113.250 C 201.978 113.571,202.270 113.833,202.315 113.833 C 202.361 113.833,202.144 113.571,201.833 113.250 C 201.522 112.929,201.230 112.667,201.185 112.667 C 201.139 112.667,201.356 112.929,201.667 113.250 M209.746 149.583 C 209.746 156.825,209.767 159.763,209.792 156.113 C 209.817 152.462,209.817 146.537,209.792 142.946 C 209.767 139.355,209.746 142.342,209.746 149.583 M262.039 143.167 C 262.039 143.487,262.073 143.619,262.115 143.458 C 262.157 143.298,262.157 143.035,262.115 142.875 C 262.073 142.715,262.039 142.846,262.039 143.167 M262.214 146.417 C 262.216 146.875,262.248 147.043,262.286 146.789 C 262.325 146.536,262.324 146.161,262.284 145.956 C 262.244 145.751,262.213 145.958,262.214 146.417 M262.214 176.083 C 262.216 176.542,262.248 176.709,262.286 176.456 C 262.325 176.203,262.324 175.828,262.284 175.623 C 262.244 175.418,262.213 175.625,262.214 176.083 M262.039 179.500 C 262.039 179.821,262.073 179.952,262.115 179.792 C 262.157 179.631,262.157 179.369,262.115 179.208 C 262.073 179.048,262.039 179.179,262.039 179.500 M100.080 212.667 C 100.080 222.338,100.100 226.294,100.125 221.458 C 100.150 216.623,100.150 208.710,100.125 203.875 C 100.100 199.040,100.080 202.996,100.080 212.667 M223.542 220.453 C 223.794 220.491,224.206 220.491,224.458 220.453 C 224.710 220.415,224.504 220.383,224.000 220.383 C 223.496 220.383,223.290 220.415,223.542 220.453 M240.333 233.219 C 240.333 233.248,240.577 233.491,240.875 233.760 L 241.417 234.250 240.927 233.708 C 240.471 233.203,240.333 233.090,240.333 233.219 M242.833 235.719 C 242.833 235.748,243.077 235.991,243.375 236.260 L 243.917 236.750 243.427 236.208 C 242.971 235.703,242.833 235.590,242.833 235.719 M209.746 285.417 C 209.746 293.300,209.767 296.501,209.792 292.529 C 209.817 288.558,209.817 282.108,209.792 278.196 C 209.767 274.284,209.746 277.533,209.746 285.417 M262.042 281.750 C 262.044 282.117,262.078 282.247,262.118 282.040 C 262.158 281.832,262.156 281.532,262.115 281.373 C 262.073 281.214,262.040 281.383,262.042 281.750 M262.217 285.167 C 262.217 285.671,262.248 285.877,262.286 285.625 C 262.324 285.373,262.324 284.960,262.286 284.708 C 262.248 284.456,262.217 284.662,262.217 285.167 M262.212 314.833 C 262.212 315.246,262.245 315.415,262.284 315.208 C 262.324 315.002,262.324 314.665,262.284 314.458 C 262.245 314.252,262.212 314.421,262.212 314.833 M262.039 318.000 C 262.039 318.321,262.073 318.452,262.115 318.292 C 262.157 318.131,262.157 317.869,262.115 317.708 C 262.073 317.548,262.039 317.679,262.039 318.000 M191.875 319.115 C 192.035 319.157,192.298 319.157,192.458 319.115 C 192.619 319.073,192.487 319.039,192.167 319.039 C 191.846 319.039,191.715 319.073,191.875 319.115 M194.375 319.115 C 194.535 319.157,194.798 319.157,194.958 319.115 C 195.119 319.073,194.987 319.039,194.667 319.039 C 194.346 319.039,194.215 319.073,194.375 319.115 M213.383 361.457 C 214.097 361.489,215.222 361.488,215.883 361.457 C 216.543 361.425,215.958 361.400,214.583 361.400 C 213.208 361.400,212.668 361.426,213.383 361.457 " stroke="none" fill="#b4d4ec" fill-rule="evenodd"></path><path id="path3" d="M152.581 157.167 C 152.581 169.862,152.601 175.056,152.625 168.708 C 152.649 162.360,152.649 151.973,152.625 145.625 C 152.601 139.277,152.581 144.471,152.581 157.167 M209.705 136.000 C 209.705 136.321,209.740 136.452,209.782 136.292 C 209.823 136.131,209.823 135.869,209.782 135.708 C 209.740 135.548,209.705 135.679,209.705 136.000 M262.246 161.250 C 262.246 169.042,262.267 172.205,262.292 168.279 C 262.317 164.354,262.317 157.979,262.292 154.113 C 262.267 150.246,262.246 153.458,262.246 161.250 M209.705 163.167 C 209.705 163.487,209.740 163.619,209.782 163.458 C 209.823 163.298,209.823 163.035,209.782 162.875 C 209.740 162.715,209.705 162.846,209.705 163.167 M262.246 300.083 C 262.246 307.875,262.267 311.038,262.292 307.113 C 262.317 303.187,262.317 296.812,262.292 292.946 C 262.267 289.080,262.246 292.292,262.246 300.083 " stroke="none" fill="#81bae5" fill-rule="evenodd"></path><path id="path4" d="M209.712 134.833 C 209.712 135.246,209.745 135.415,209.784 135.208 C 209.824 135.002,209.824 134.665,209.784 134.458 C 209.745 134.252,209.712 134.421,209.712 134.833 M100.080 177.500 C 100.080 187.171,100.100 191.127,100.125 186.292 C 100.150 181.456,100.150 173.544,100.125 168.708 C 100.100 163.873,100.080 167.829,100.080 177.500 M209.712 164.333 C 209.712 164.746,209.745 164.915,209.784 164.708 C 209.824 164.502,209.824 164.165,209.784 163.958 C 209.745 163.752,209.712 163.921,209.712 164.333 M190.211 188.286 C 190.464 188.325,190.839 188.324,191.044 188.284 C 191.249 188.244,191.042 188.213,190.583 188.214 C 190.125 188.216,189.957 188.248,190.211 188.286 M250.324 210.292 L 249.750 210.917 250.375 210.342 C 250.719 210.026,251.000 209.745,251.000 209.717 C 251.000 209.590,250.859 209.710,250.324 210.292 M152.576 225.876 C 152.532 225.991,152.515 228.710,152.540 231.918 L 152.584 237.750 152.667 231.708 C 152.713 228.385,152.729 225.667,152.703 225.667 C 152.677 225.667,152.620 225.761,152.576 225.876 M209.709 269.750 C 209.711 270.117,209.745 270.247,209.785 270.040 C 209.824 269.832,209.823 269.532,209.781 269.373 C 209.739 269.214,209.707 269.383,209.709 269.750 M249.573 349.375 L 249.083 349.917 249.625 349.427 C 249.923 349.158,250.167 348.914,250.167 348.885 C 250.167 348.757,250.029 348.870,249.573 349.375 " stroke="none" fill="#64ace4" fill-rule="evenodd"></path></g></svg>